# xmcd
#
# Track frame offsets: 
#        150
#        24251
#        47896
#        72877
#        88738
#        110439
#        131604
#        154952
#        181869
#        209810
#        237617
#        267923
#
# Disc length: 3921 seconds
#
# Revision: 1
# Processed by: cddbd v1.5.2PL0 Copyright (c) Steve Scherf et al.
# Submitted via: ExactAudioCopy v1.0b3
#
DISCID=ae0f4f0c
DTITLE=Various Artist - Tinh Hoai huong
DYEAR=2007
DGENRE=Blues
TTITLE0=Duc Tuan - Tinh hoai huong
TTITLE1=Quang Dung - Tinh cam
TTITLE2=Nguyen Thao - Chi chung do thoi
TTITLE3=Duy Quang - Tram nam ben cu
TTITLE4=Ngoc Tuyen - Vo thuong
TTITLE5=AC&M - Huong rung
TTITLE6=Duc Tuan - Chiec kep toc thom tho
TTITLE7=Quang Linh, Anh Tuyet - Vo chong que
TTITLE8=Thai Hien - Tieng dan toi
TTITLE9=Anh Tuyet - Do ai
TTITLE10=Thu Minh - Tieng sao thien thai
TTITLE11=Quang Linh - Nu tam Xuan
EXTD=
EXTT0=
EXTT1=
EXTT2=
EXTT3=
EXTT4=
EXTT5=
EXTT6=
EXTT7=
EXTT8=
EXTT9=
EXTT10=
EXTT11=
PLAYORDER=
